<?xml version="1.0" standalone="no"?><!DOCTYPE svg PUBLIC "-//W3C//DTD SVG 1.1//EN" "http://www.w3.org/Graphics/SVG/1.1/DTD/svg11.dtd"><svg t="1739287588102" class="icon" viewBox="0 0 1024 1024" version="1.1" xmlns="http://www.w3.org/2000/svg" p-id="22078" xmlns:xlink="http://www.w3.org/1999/xlink" width="200" height="200"><path d="M438.351644 334.620444c117.236622 0 216.576 90.100622 216.940089 196.744534 0.113778 30.5152-10.922667 68.334933-22.607644 108.373333-7.657244 26.237156-15.553422 53.361778-19.797333 77.403022-9.045333 51.370667 0.955733 91.670756 1.069511 92.068978 2.139022 8.3968-2.184533 16.987022-10.24 20.7872l-1.558756 0.659911-161.905778 60.689067 5.609245-146.545778-143.280356-22.163911-11.025066-121.947022-87.517867-48.913067 3.413333-3.822933-0.056889-3.697778c-0.056889-4.721778-0.091022-8.442311 0.398223-11.662222 2.025244-103.082667 105.563022-194.468978 223.823644-197.870934l3.948089-0.079644 2.787555-0.022756z" fill="#E8F8F5" p-id="22079"></path><path d="M833.206044 528.6912c16.2816-58.936889 31.664356-114.596978 31.505067-159.516444C864.199111 212.252444 725.742933 79.644444 562.335289 79.644444l-3.879822 0.022756c-167.1168 2.1504-314.629689 137.921422-317.485511 291.328-0.682667 4.744533-0.637156 10.217244-0.557512 17.157689l0.079645 5.449955C168.618667 478.139733 159.288889 509.724444 159.288889 527.803733c0 29.673244 16.679822 54.658844 45.761422 68.551111 9.4208 4.482844 24.120889 6.883556 58.1632 9.489067l7.076978 0.568889-0.159289 85.629156c0.455111 40.5504 34.304 73.534578 76.049067 73.534577l71.998577 0.011378-0.216177 151.597511c0 8.988444 4.448711 17.408 11.923911 22.482489a27.283911 27.283911 0 0 0 25.372444 2.7648l335.405511-132.778667a27.101867 27.101867 0 0 0 16.440889-31.561955c-0.159289-0.568889-14.108444-59.892622-1.490489-135.497956 5.905067-35.384889 16.918756-75.298133 27.591111-113.902933zM780.686222 514.275556c-11.036444 39.936-22.459733 81.248711-28.819911 119.409777a449.831822 449.831822 0 0 0-1.934222 133.688889l-277.424356 109.818311 0.227556-138.706489c0-7.202133-2.8672-14.108444-7.964445-19.217066a27.306667 27.306667 0 0 0-19.296711-7.964445h-99.896889c-11.241244 0-20.821333-9.102222-20.946488-19.524266l0.2048-110.626134a27.170133 27.170133 0 0 0-25.326934-27.124622l-32.119466-2.298311c-27.374933-2.104889-36.7616-3.754667-38.764089-4.334933-14.848-7.076978-14.848-16.1792-14.848-19.2512 0.079644-0.910222 3.003733-23.278933 71.361422-103.082667l2.525867-2.958222c7.509333-8.874667 7.429689-17.988267 7.236266-34.542934-0.022756-2.924089-0.1024-5.7344-0.045511-7.793777a26.055111 26.055111 0 0 0 0.580267-5.393067C296.163556 250.311111 421.842489 135.702756 559.149511 133.9392l3.185778-0.022756c133.950578 0 247.455289 107.8272 247.876267 235.451734 0.136533 37.4784-14.9504 92.103111-29.525334 144.918755z" fill="#1BBC9C" p-id="22080"></path><path d="M553.051022 181.816889c75.457422 0 136.874667 46.057244 136.874667 102.650311 0 49.834667-44.6464 59.949511-94.162489 62.008889l-5.848178 0.2048c-3.902578 0.113778-7.839289 0.182044-11.764622 0.227555l-5.893689 0.056889-8.817778 0.022756h-17.544533l-2.946844-0.022756-5.893689-0.056889a668.216889 668.216889 0 0 1-11.764623-0.227555l-5.848177-0.216178c-49.504711-2.048-94.128356-12.174222-94.128356-61.997511 0-55.637333 58.504533-102.650311 127.738311-102.650311z m0 54.272c-40.573156 0-73.250133 26.464711-73.250133 48.378311 2.582756 3.436089 17.6128 8.260267 77.801244 8.260267 60.2112 0 75.252622-4.824178 78.859378-7.702756-1.024-23.392711-36.260978-48.935822-83.399111-48.935822z" fill="#0274C6" p-id="22081"></path></svg>