<?xml version="1.0" standalone="no"?><!DOCTYPE svg PUBLIC "-//W3C//DTD SVG 1.1//EN" "http://www.w3.org/Graphics/SVG/1.1/DTD/svg11.dtd"><svg t="1739288007597" class="icon" viewBox="0 0 1092 1024" version="1.1" xmlns="http://www.w3.org/2000/svg" p-id="28606" xmlns:xlink="http://www.w3.org/1999/xlink" width="213.28125" height="200"><path d="M836.266667 648.533333a51.2 51.2 0 1 1 0 102.4 51.2 51.2 0 0 1 0-102.4z m-204.8 0a51.2 51.2 0 1 1 0 102.4 51.2 51.2 0 0 1 0-102.4z m85.333333-187.733333a51.2 51.2 0 1 1 0 102.4 51.2 51.2 0 0 1 0-102.4zM375.466667 375.466667a34.133333 34.133333 0 0 1 34.133333 34.133333v102.4a34.133333 34.133333 0 0 1-34.133333 34.133333H170.666667a34.133333 34.133333 0 0 1-34.133334-34.133333v-102.4a34.133333 34.133333 0 0 1 34.133334-34.133333h204.8z" fill="#CEE8FF" p-id="28607"></path><path d="M989.866667 17.066667A85.333333 85.333333 0 0 1 1075.2 102.4v819.2a85.333333 85.333333 0 0 1-85.333333 85.333333H102.4A85.333333 85.333333 0 0 1 17.066667 921.6V102.4A85.333333 85.333333 0 0 1 102.4 17.066667z m51.2 238.933333h-989.866667V921.6a51.2 51.2 0 0 0 46.2848 50.961067L102.4 972.8h887.466667a51.2 51.2 0 0 0 51.2-51.2V256z m-119.466667 102.4a51.2 51.2 0 0 1 51.2 51.2v409.6a51.2 51.2 0 0 1-51.2 51.2H546.133333a51.2 51.2 0 0 1-51.2-51.2V409.6a51.2 51.2 0 0 1 51.2-51.2z m0 34.133333H546.133333a17.066667 17.066667 0 0 0-17.066666 17.066667v409.6a17.066667 17.066667 0 0 0 17.066666 17.066667h375.466667a17.066667 17.066667 0 0 0 17.066667-17.066667V409.6a17.066667 17.066667 0 0 0-17.066667-17.066667z m-525.653333 409.6a17.066667 17.066667 0 0 1 3.072 33.860267l-3.072 0.273067H136.533333a17.066667 17.066667 0 0 1-3.072-33.860267L136.533333 802.133333h259.413334z m440.32-170.666666a68.266667 68.266667 0 1 1-48.3328 116.462933 123.904 123.904 0 0 1-60.7232 19.8656 17.066667 17.066667 0 1 1-1.911467-34.065067c16.384-0.9216 31.9488-6.2464 45.3632-15.223466A68.266667 68.266667 0 0 1 836.266667 631.466667z m-195.6864-68.7104a17.066667 17.066667 0 0 1 4.266666 23.7568c-9.216 13.277867-14.882133 28.706133-16.384 45.056l3.003734-0.1024a68.266667 68.266667 0 1 1-37.341867 11.127466 10.308267 10.308267 0 0 1-0.2048-2.218666c0-26.624 8.0896-52.0192 22.903467-73.386667a17.066667 17.066667 0 0 1 23.7568-4.232533zM375.466667 716.8a17.066667 17.066667 0 0 1 3.072 33.860267L375.466667 750.933333H136.533333a17.066667 17.066667 0 0 1-3.072-33.860266L136.533333 716.8h238.933334z m460.8-51.2a34.133333 34.133333 0 1 0 0 68.266667 34.133333 34.133333 0 0 0 0-68.266667z m-204.8 0a34.133333 34.133333 0 1 0 0 68.266667 34.133333 34.133333 0 0 0 0-68.266667z m-338.500267-34.133333a17.066667 17.066667 0 0 1 3.072 33.860266l-3.072 0.273067H136.533333a17.066667 17.066667 0 0 1-3.072-33.860267L136.533333 631.466667h156.433067zM716.8 443.733333a68.266667 68.266667 0 0 1 65.979733 85.845334 127.522133 127.522133 0 0 1 53.009067 59.767466 17.066667 17.066667 0 0 1-31.3344 13.5168 93.457067 93.457067 0 0 0-38.468267-43.588266A68.266667 68.266667 0 1 1 716.8 443.733333z m-341.333333-85.333333a51.2 51.2 0 0 1 51.2 51.2v102.4a51.2 51.2 0 0 1-51.2 51.2H170.666667A51.2 51.2 0 0 1 119.466667 512v-102.4A51.2 51.2 0 0 1 170.666667 358.4zM716.8 477.866667a34.133333 34.133333 0 1 0 0 68.266666 34.133333 34.133333 0 0 0 0-68.266666z m-341.333333-85.333334H170.666667a17.066667 17.066667 0 0 0-17.066667 17.066667v102.4a17.066667 17.066667 0 0 0 17.066667 17.066667h204.8a17.066667 17.066667 0 0 0 17.066666-17.066667v-102.4a17.066667 17.066667 0 0 0-17.066666-17.066667z m614.4-341.333333H102.4A51.2 51.2 0 0 0 51.2 102.4v119.466667h989.866667V102.4a51.2 51.2 0 0 0-46.2848-50.961067L989.866667 51.2z m-819.2 34.133333a51.2 51.2 0 1 1 0 102.4 51.2 51.2 0 0 1 0-102.4z m136.533333 0a51.2 51.2 0 1 1 0 102.4 51.2 51.2 0 0 1 0-102.4z m136.533333 0a51.2 51.2 0 1 1 0 102.4 51.2 51.2 0 0 1 0-102.4z m-273.066666 34.133334a17.066667 17.066667 0 1 0 0 34.133333 17.066667 17.066667 0 0 0 0-34.133333z m136.533333 0a17.066667 17.066667 0 1 0 0 34.133333 17.066667 17.066667 0 0 0 0-34.133333z m136.533333 0a17.066667 17.066667 0 1 0 0 34.133333 17.066667 17.066667 0 0 0 0-34.133333z" fill="#088DFF" p-id="28608"></path></svg>