<?xml version="1.0" standalone="no"?><!DOCTYPE svg PUBLIC "-//W3C//DTD SVG 1.1//EN" "http://www.w3.org/Graphics/SVG/1.1/DTD/svg11.dtd"><svg t="1739288103232" class="icon" viewBox="0 0 1024 1024" version="1.1" xmlns="http://www.w3.org/2000/svg" p-id="29760" xmlns:xlink="http://www.w3.org/1999/xlink" width="200" height="200"><path d="M1.024 246.784c0-2.048-0.512-3.584-0.512-5.632v-167.424c0-6.144 1.536-7.68 7.68-7.68h1008.128c6.144 0 7.68 1.536 7.68 7.68v166.4c0 2.56 0 4.608-0.512 7.168-4.608 3.584-10.24 1.536-15.36 2.048h-7.68c-2.048 0.512-4.096 0-6.144 0H8.192c-2.56-0.512-5.12-0.512-7.168-2.56z" fill="#4EB677" p-id="29761"></path><path d="M1000.448 247.296h22.528v709.12c0 5.632-0.512 8.192-7.68 8.192h-1007.104c-6.144 0-7.68-1.536-7.68-7.68V253.44v-5.632h23.04c2.048 2.048 2.048 4.608 2.048 7.168V926.72c0 14.336-1.024 13.312 12.8 13.312h946.176c13.312 0 12.8 1.024 12.8-12.8V261.12c1.024-5.632 0-10.24 3.072-13.824z" fill="#808080" p-id="29762"></path><path d="M1000.448 247.296v686.08c0 9.216 1.024 8.192-8.192 8.192h-959.488c-9.728 0-8.704 1.024-8.704-8.704V254.464v-7.168h967.68c2.56-0.512 5.632-0.512 8.704 0zM121.344 189.952c-15.872 0-28.672-12.8-28.672-28.16 0-15.872 12.8-28.672 28.672-28.672 15.872 0 28.672 12.8 28.672 28.672 0.512 15.872-12.288 28.672-28.672 28.16zM327.68 189.952c-15.872 0-28.672-12.288-28.672-28.16s12.8-28.672 28.672-28.672c15.872 0 29.184 13.312 29.184 28.672-0.512 15.872-13.312 28.16-29.184 28.16zM253.44 161.792c0 15.872-12.288 28.16-28.16 28.672-15.872 0-28.672-12.288-28.672-28.16 0-16.384 12.8-29.184 28.672-28.672 15.36-0.512 28.16 12.288 28.16 28.16z" fill="#FEFEFE" p-id="29763"></path><path d="M462.336 485.376h-47.104c-33.792 0-67.584 0.512-101.888 0-15.36-0.512-30.208-0.512-45.056 4.608-29.184 10.752-49.152 30.72-60.416 59.904-1.024 2.048-1.536 4.096-2.56 7.168-8.704-14.848-16.896-29.184-25.088-43.52-8.704-15.36-17.408-30.208-26.112-45.568-2.048-3.072-2.048-5.12 0.512-8.192 30.208-35.328 67.584-57.344 113.152-64.512 64.512-10.24 120.32 8.704 166.4 54.272 7.68 7.68 14.848 16.384 20.48 25.6 3.072 3.072 5.12 6.144 7.68 10.24z" fill="#F36C6C" p-id="29764"></path><path d="M135.68 488.96c10.24 17.92 19.968 34.304 29.696 51.2 16.896 29.696 34.304 59.392 51.2 89.088 19.968 34.816 60.416 53.76 99.84 46.592 1.024 0 2.048-0.512 3.072-0.512 1.536 0 3.072-0.512 4.096 0.512 1.024 1.536-0.512 2.56-1.024 4.096-16.384 28.16-32.256 56.32-48.64 84.48-2.048 3.072-4.096 3.584-7.168 3.072-33.792-6.656-64-19.968-90.112-43.008-44.544-39.424-66.56-89.088-65.536-148.48 0.512-30.208 8.704-58.88 24.576-87.04z" fill="#4EB678" p-id="29765"></path><path d="M301.568 769.024c7.68-13.312 15.36-26.624 23.04-39.424 19.968-34.816 40.448-69.632 60.416-104.448 18.432-31.744 12.288-79.36-12.8-106.496-1.536-1.536-3.584-3.072-4.096-5.632h102.4c4.096 0 5.632 1.536 7.168 5.12 21.504 66.56 11.776 127.488-31.744 182.272-29.696 37.888-69.632 59.392-116.736 67.584-9.216 1.024-17.92 2.048-27.648 1.024z" fill="#ECC77E" p-id="29766"></path><path d="M368.128 581.632c0 37.888-30.72 68.608-68.608 68.608s-69.12-31.232-68.608-69.12c0-37.888 31.232-68.608 69.12-68.608 37.376 0 68.096 31.232 68.096 69.12z" fill="#4D81B7" p-id="29767"></path><path d="M556.544 574.976v-271.36c0-6.144 1.536-7.168 7.168-7.168 15.36 0.512 15.36 0 15.36 15.36v533.504c0 9.728 1.024 8.704-8.192 8.704-14.336 0-14.336 0-14.336-14.336v-264.704zM783.872 411.136h-112.128c-5.12 0-7.168-1.024-6.656-6.656 0.512-5.12-2.048-11.776 1.024-15.36 3.072-3.584 10.24-1.024 15.36-1.024h214.528c5.632 0 7.68 1.536 7.168 7.168-0.512 15.872 0 15.872-15.872 15.872h-103.424zM783.872 570.88h-111.616c-5.12 0-6.656-1.024-6.656-6.656 0.512-16.384 0-16.384 16.384-16.384h214.016c5.632 0 7.68 1.536 7.168 7.168-0.512 15.872 0 15.872-15.872 15.872h-103.424zM784.384 708.096h112.64c5.12 0 6.144 1.536 6.144 6.144 0 16.384 0 16.384-16.384 16.384h-215.04c-5.632 0-7.168-1.536-7.168-7.168 0.512-15.872 0-15.872 16.384-15.872 34.816 0.512 69.12 0.512 103.424 0.512z" fill="#808080" p-id="29768"></path><path d="M751.104 785.408h-79.36c-4.608 0-6.656-1.024-6.144-6.144 0.512-5.632-2.56-12.8 1.536-16.384 3.584-3.072 10.24-1.024 15.872-1.024h146.944c5.632 0 7.68 1.024 7.68 7.168-0.512 15.872 0 15.872-16.384 15.872-23.552 0.512-47.104 0.512-70.144 0.512z" fill="#818181" p-id="29769"></path><path d="M751.616 602.112h79.872c4.608 0 6.144 1.536 6.144 6.144 0 16.896 0 16.896-16.384 16.896h-148.48c-5.632 0-7.168-1.536-6.656-7.168 0.512-15.872 0-15.872 16.384-15.872h69.12zM751.616 465.408h-80.384c-4.608 0-6.144-1.024-6.144-5.632 0-16.896 0-16.896 16.896-16.896h147.968c5.12 0 7.168 1.024 7.168 6.656-0.512 15.872 0 15.872-16.384 15.872h-69.12z" fill="#808080" p-id="29770"></path></svg>