<?xml version="1.0" standalone="no"?><!DOCTYPE svg PUBLIC "-//W3C//DTD SVG 1.1//EN" "http://www.w3.org/Graphics/SVG/1.1/DTD/svg11.dtd"><svg t="1739287163611" class="icon" viewBox="0 0 1194 1024" version="1.1" xmlns="http://www.w3.org/2000/svg" p-id="10636" xmlns:xlink="http://www.w3.org/1999/xlink" width="233.203125" height="200"><path d="M855.335329 993.394136h-37.184347V766.664963a35.372802 35.372802 0 0 0-35.277458-35.277458h-87.335543a35.372802 35.372802 0 0 0-35.277458 35.277458v226.729173h-37.184347V766.664963a72.557149 72.557149 0 0 1 72.461805-72.461805h87.335543a72.557149 72.557149 0 0 1 72.461805 72.461805z" fill="#864BFF" p-id="10637"></path><path d="M923.697321 1023.999714h-648.342463a140.728452 140.728452 0 0 1-140.061041-140.537763v-276.498992a23.264053 23.264053 0 0 1 46.432762 0v276.498992a94.295691 94.295691 0 0 0 94.105001 94.105001h648.342464a94.295691 94.295691 0 0 0 94.105001-94.105001v-276.498992a23.264053 23.264053 0 0 1 46.432762 0v276.498992a140.728452 140.728452 0 0 1-141.014486 140.537763zM454.030413 569.683267a166.948184 166.948184 0 0 1-166.757495-166.757495 23.264053 23.264053 0 1 1 46.432762 0 120.324734 120.324734 0 1 0 240.554122 0 23.264053 23.264053 0 1 1 46.432762 0A166.948184 166.948184 0 0 1 454.030413 569.683267z" fill="#864BFF" p-id="10638"></path><path d="M741.112642 569.683267a166.948184 166.948184 0 0 1-166.757495-166.757495 23.264053 23.264053 0 1 1 46.432762 0 120.324734 120.324734 0 1 0 240.554122 0 23.264053 23.264053 0 0 1 46.432762 0 166.948184 166.948184 0 0 1-166.662151 166.757495z" fill="#864BFF" p-id="10639"></path><path d="M1028.099527 569.683267a166.948184 166.948184 0 0 1-166.757496-166.757495 23.264053 23.264053 0 0 1 46.432762 0 120.324734 120.324734 0 0 0 240.554123 3.432401l-126.903503-299.000289a108.978741 108.978741 0 0 0-97.442058-60.925122h-648.342464a109.455463 109.455463 0 0 0-98.014125 61.592534L46.718795 406.358173a120.324734 120.324734 0 0 0 240.554123-3.432401 23.264053 23.264053 0 1 1 46.432762 0 166.757495 166.757495 0 1 1-333.70568 0h11.822716L0.190689 396.823725 135.675195 88.575022A156.364947 156.364947 0 0 1 275.926925 0h648.342463a155.697536 155.697536 0 0 1 139.488974 87.621577v1.048789l131.09866 308.439393-11.632027 5.816013h11.632027a166.948184 166.948184 0 0 1-166.757495 166.757495z" fill="#864BFF" p-id="10640"></path><path d="M602.100391 339.617037a19.068896 19.068896 0 0 1-18.592174-18.592173v-114.413376a18.592174 18.592174 0 0 1 37.184347 0v114.413376a19.068896 19.068896 0 0 1-18.592173 18.592173zM877.359904 339.235659a19.068896 19.068896 0 0 1-18.401485-16.494595L846.754326 208.804411a18.592174 18.592174 0 0 1 36.898314-4.099813L896.4288 318.641252a19.068896 19.068896 0 0 1-16.399251 20.499063zM326.459499 339.235659H324.361921a19.068896 19.068896 0 0 1-16.399251-20.499063l12.585471-113.936653a18.592174 18.592174 0 0 1 36.898314 4.099812l-12.585471 113.841309a19.068896 19.068896 0 0 1-18.401485 16.494595z" fill="#00FFCB" p-id="10641"></path></svg>