<?xml version="1.0" standalone="no"?><!DOCTYPE svg PUBLIC "-//W3C//DTD SVG 1.1//EN" "http://www.w3.org/Graphics/SVG/1.1/DTD/svg11.dtd"><svg t="1739288720710" class="icon" viewBox="0 0 1024 1024" version="1.1" xmlns="http://www.w3.org/2000/svg" p-id="33306" xmlns:xlink="http://www.w3.org/1999/xlink" width="200" height="200"><path d="M42.666667 384m128 0l0 0q128 0 128 128l0 0q0 128-128 128l0 0q-128 0-128-128l0 0q0-128 128-128Z" fill="#FFFFFF" p-id="33307"></path><path d="M170.666667 341.333333l-8.746667 0.256A171.050667 171.050667 0 0 0 0 512c0 94.165333 76.458667 170.666667 170.666667 170.666667l8.746666-0.256A171.050667 171.050667 0 0 0 341.333333 512l-0.256-8.746667A171.050667 171.050667 0 0 0 170.666667 341.333333z m-5.034667 85.461334L170.666667 426.666667c45.226667 0 82.602667 35.413333 85.205333 80.298666l0.128 6.272c0 43.946667-35.413333 81.365333-80.298667 83.968L169.429333 597.333333C123.605333 597.333333 85.333333 559.061333 85.333333 512c0-45.226667 35.413333-82.602667 80.298667-85.205333z" fill="#3C3F44" p-id="33308"></path><path d="M725.333333 384m128 0l0 0q128 0 128 128l0 0q0 128-128 128l0 0q-128 0-128-128l0 0q0-128 128-128Z" fill="#FFFFFF" p-id="33309"></path><path d="M853.333333 341.333333l-8.746666 0.256A171.050667 171.050667 0 0 0 682.666667 512c0 94.165333 76.458667 170.666667 170.666666 170.666667l8.746667-0.256A171.050667 171.050667 0 0 0 1024 512l-0.256-8.746667A171.050667 171.050667 0 0 0 853.333333 341.333333z m-5.034666 85.461334L853.333333 426.666667c45.226667 0 82.602667 35.413333 85.205334 80.298666l0.128 6.272c0 43.946667-35.413333 81.365333-80.298667 83.968l-6.272 0.128C806.272 597.333333 768 559.061333 768 512c0-45.226667 35.413333-82.602667 80.298667-85.205333z" fill="#3C3F44" p-id="33310"></path><path d="M512 42.666667c188.501333 0 341.333333 152.576 341.333333 340.906666v171.52c0 9.088-0.341333 18.176-1.066666 27.093334 25.941333 38.4 41.728 84.224 43.52 133.546666L896 725.333333c0 141.397333-114.986667 256-255.744 256H383.744C242.517333 981.333333 128 866.432 128 725.333333c0-52.992 16.128-102.186667 43.733333-143.061333A342.4 342.4 0 0 1 170.666667 555.093333V383.616c0-184.746667 147.456-335.189333 330.709333-340.778667L512 42.666667z" fill="#FFFFFF" p-id="33311"></path><path d="M512 0l-11.264 0.170667C293.290667 6.528 128 176.298667 128 383.573333v171.434667l0.341333 16-5.205333 8.832A297.258667 297.258667 0 0 0 85.333333 725.333333c0 164.736 133.674667 298.666667 298.410667 298.666667h256.512C804.736 1024 938.666667 890.112 938.666667 725.333333l-0.170667-10.368-0.768-13.098666a297.984 297.984 0 0 0-36.736-121.813334l-5.376-9.088 0.384-15.914666V383.616C896 171.690667 724.096 0 512 0z m-9.301333 85.461333L512 85.333333c164.992 0 298.666667 133.504 298.666667 298.24v171.52c0 7.936-0.298667 15.872-0.938667 23.765334l-1.152 14.848 8.32 12.373333c22.144 32.810667 34.816 71.04 36.266667 111.232l0.170666 8.789333C853.333333 843.008 757.632 938.666667 640.256 938.666667H383.744a213.376 213.376 0 0 1-176.64-332.501334l8.362667-12.373333-1.194667-14.933333A299.733333 299.733333 0 0 1 213.333333 555.093333V383.616c0-161.109333 128.597333-293.205333 289.365334-298.154667z" fill="#3C3F44" p-id="33312"></path><path d="M640 426.666667a128 128 0 0 1 35.84 250.88 170.666667 170.666667 0 1 1-327.765333 0A128.042667 128.042667 0 1 1 512 554.666667a128 128 0 0 1 128-128z" fill="#B3BAC3" p-id="33313"></path><path d="M631.466667 384.213333a170.154667 170.154667 0 0 0-114.901334 52.608l-4.565333 4.992-4.565333-4.992A170.666667 170.666667 0 0 0 213.333333 554.666667l0.213334 8.746666a170.752 170.752 0 0 0 83.541333 138.197334l2.773333 1.493333-0.853333 10.026667A213.333333 213.333333 0 1 0 725.333333 725.333333l-0.341333-12.202666-0.896-10.026667 2.816-1.493333A170.709333 170.709333 0 0 0 640 384l-8.533333 0.213333z m-162.346667 164.096L469.333333 554.666667h85.333334a85.333333 85.333333 0 1 1 109.269333 81.92l-40.96 11.946666 11.946667 40.96a128 128 0 1 1-245.845334-0.042666l11.946667-40.917334-40.96-11.946666a85.376 85.376 0 1 1 109.056-88.32z" fill="#3C3F44" p-id="33314"></path></svg>