<?xml version="1.0" standalone="no"?><!DOCTYPE svg PUBLIC "-//W3C//DTD SVG 1.1//EN" "http://www.w3.org/Graphics/SVG/1.1/DTD/svg11.dtd"><svg t="1739288749257" class="icon" viewBox="0 0 1024 1024" version="1.1" xmlns="http://www.w3.org/2000/svg" p-id="35391" xmlns:xlink="http://www.w3.org/1999/xlink" width="200" height="200"><path d="M83.2 294.4l128-25.6h51.2l32-172.8L460.8 44.8 576 160l19.2 108.8 128 6.4 44.8 38.4 12.8 147.2 96 19.2 70.4 64 25.6 89.6-51.2 121.6-128 19.2-12.8 76.8-25.6 96-140.8 25.6H262.4l-179.2-19.2-19.2-108.8v-51.2l96-44.8 38.4-6.4 44.8-44.8 12.8-64-25.6-83.2-64-76.8-76.8-12.8L64 390.4z" fill="#C6EBFF" p-id="35392"></path><path d="M723.2 1011.2H134.4c-51.2 0-96-44.8-96-96v-140.8c0-12.8 6.4-19.2 12.8-25.6 6.4-6.4 19.2-6.4 32-6.4s25.6 6.4 32 6.4c64 0 121.6-57.6 121.6-121.6 0-64-57.6-121.6-121.6-121.6-6.4 0-19.2 0-32 6.4-12.8 0-19.2 0-32-6.4-6.4-12.8-6.4-25.6-6.4-32V326.4c0-51.2 44.8-96 96-96h102.4v-32C243.2 96 326.4 12.8 428.8 12.8c102.4 0 185.6 83.2 185.6 185.6v32h102.4c51.2 0 96 44.8 96 96v102.4h19.2c102.4 0 185.6 83.2 185.6 185.6 0 102.4-83.2 185.6-185.6 185.6h-19.2v102.4c0 64-38.4 108.8-89.6 108.8z m-614.4-198.4v102.4c0 12.8 12.8 25.6 25.6 25.6h582.4c12.8 0 25.6-12.8 25.6-25.6V768c0-12.8 6.4-25.6 12.8-25.6 6.4-6.4 19.2-6.4 32-6.4 12.8 6.4 25.6 6.4 38.4 6.4 64 0 121.6-57.6 121.6-121.6 0-64-57.6-121.6-121.6-121.6-12.8 0-25.6 0-38.4 6.4-6.4 6.4-19.2 6.4-25.6 0-6.4-6.4-12.8-12.8-12.8-25.6V326.4c0-12.8-12.8-25.6-25.6-25.6H569.6c-12.8 0-25.6-6.4-32-12.8-6.4-12.8-6.4-25.6 0-32 6.4-19.2 12.8-32 12.8-51.2 0-64-57.6-121.6-121.6-121.6-64 0-121.6 57.6-121.6 121.6 0 19.2 6.4 32 12.8 51.2 0 12.8 0 19.2-6.4 32-6.4 6.4-19.2 12.8-25.6 12.8H134.4c-12.8 0-25.6 12.8-25.6 25.6v102.4c108.8 0 198.4 83.2 198.4 192 0 102.4-83.2 185.6-185.6 185.6-6.4 6.4-6.4 6.4-12.8 6.4z m0 0" fill="#0096E6" p-id="35393"></path></svg>