<?xml version="1.0" standalone="no"?><!DOCTYPE svg PUBLIC "-//W3C//DTD SVG 1.1//EN" "http://www.w3.org/Graphics/SVG/1.1/DTD/svg11.dtd"><svg t="1739287485621" class="icon" viewBox="0 0 1024 1024" version="1.1" xmlns="http://www.w3.org/2000/svg" p-id="18464" xmlns:xlink="http://www.w3.org/1999/xlink" width="200" height="200"><path d="M507.5968 976.128c-253.6448 0-460.032-206.3872-460.032-460.032S253.952 56.0128 507.5968 56.0128s460.032 206.3872 460.032 460.032-206.3872 460.0832-460.032 460.0832z m0-858.6752c-219.8016 0-398.592 178.7904-398.592 398.592 0 219.8016 178.7904 398.592 398.592 398.592 219.8016 0 398.592-178.7904 398.592-398.592 0-219.7504-178.7904-398.592-398.592-398.592z" fill="#303135" p-id="18465"></path><path d="M553.216 766.9248H552.96c-21.0944-0.1024-39.168-13.824-45.0048-34.0992l-51.712-180.48-170.0352-45.2608c-20.3776-5.4272-34.4064-23.1936-34.9184-44.288s12.544-39.5264 32.6144-46.0288l367.2576-118.528a46.8992 46.8992 0 0 1 47.36 11.1616 46.8992 46.8992 0 0 1 12.1856 47.104l-112.384 376.7808a46.75584 46.75584 0 0 1-45.1072 33.6384z m-203.9808-306.688l130.7136 34.816c15.9232 4.1984 28.6208 16.6912 33.1264 32.512l40.3968 141.056 90.5216-303.5136-294.7584 95.1296z m114.944 94.1568zM302.7968 475.2384z" fill="#FF623E" p-id="18466"></path></svg>